Normalized EMG Linear Envelopes
nRows=191
nColumns=4

endheader
time	 med_gas_r	  soleus_r	 tib_ant_r	
1.69646	  0.109919	  0.087796	  0.024756	
1.72973	  0.108212	  0.088902	  0.025067	
1.76299	  0.109501	  0.088942	  0.025181	
1.79626	  0.113243	  0.087795	  0.025169	
1.82952	  0.117428	  0.085791	  0.024991	
1.86278	  0.120245	  0.083660	  0.024683	
1.89605	  0.121350	  0.081924	  0.024356	
1.92931	  0.121608	  0.080966	  0.024084	
1.96258	  0.121748	  0.080689	  0.023887	
1.99584	  0.121879	  0.080471	  0.023791	
2.0291	  0.121151	  0.080022	  0.023825	
2.06237	  0.118338	  0.079417	  0.023979	
2.09563	  0.113571	  0.078586	  0.024169	
2.1289	  0.108912	  0.077729	  0.024340	
2.16216	  0.105988	  0.077077	  0.024528	
2.19542	  0.105406	  0.076658	  0.024777	
2.22869	  0.107250	  0.076491	  0.025098	
2.26195	  0.110787	  0.076467	  0.025419	
2.29522	  0.114870	  0.076265	  0.025549	
2.32848	  0.118147	  0.075813	  0.025337	
2.36174	  0.118929	  0.075487	  0.024886	
2.39501	  0.117449	  0.075615	  0.024383	
2.42827	  0.115834	  0.076245	  0.023963	
2.46154	  0.115395	  0.077279	  0.023666	
2.4948	  0.115779	  0.078469	  0.023466	
2.52806	  0.116127	  0.079775	  0.023373	
2.56133	  0.116700	  0.081139	  0.023375	
2.59459	  0.117747	  0.082450	  0.023454	
2.62786	  0.119312	  0.083423	  0.023575	
2.66112	  0.121137	  0.083805	  0.023672	
2.69438	  0.121649	  0.083622	  0.023773	
2.72765	  0.119299	  0.083050	  0.023975	
2.76091	  0.115037	  0.082467	  0.024347	
2.79418	  0.110349	  0.082092	  0.024782	
2.82744	  0.106406	  0.081966	  0.025119	
2.8607	  0.104169	  0.082141	  0.025272	
2.89397	  0.103481	  0.082689	  0.025252	
2.92723	  0.103091	  0.083759	  0.025114	
2.9605	  0.101341	  0.085173	  0.024925	
2.99376	  0.098346	  0.086357	  0.024659	
3.02702	  0.095620	  0.086802	  0.024251	
3.06029	  0.094098	  0.086287	  0.023755	
3.09355	  0.093805	  0.084895	  0.023342	
3.12682	  0.094813	  0.083357	  0.023099	
3.16008	  0.096851	  0.081970	  0.022972	
3.19334	  0.098727	  0.080652	  0.022910	
3.22661	  0.099184	  0.079270	  0.022936	
3.25987	  0.098751	  0.077667	  0.023040	
3.29314	  0.098908	  0.075918	  0.023167	
3.3264	  0.100824	  0.074443	  0.023293	
3.35966	  0.104547	  0.073656	  0.023408	
3.39293	  0.108898	  0.073757	  0.023516	
3.42619	  0.111964	  0.074659	  0.023633	
3.45946	  0.112294	  0.076184	  0.023774	
3.49272	  0.110287	  0.078056	  0.023923	
3.52598	  0.108239	  0.079908	  0.024022	
3.55925	  0.108151	  0.081542	  0.024046	
3.59251	  0.110478	  0.082829	  0.023961	
3.62578	  0.114443	  0.083763	  0.023728	
3.65904	  0.118664	  0.084629	  0.023399	
3.6923	  0.122025	  0.085568	  0.023040	
3.72557	  0.123074	  0.086747	  0.022718	
3.75883	  0.121490	  0.088200	  0.022500	
3.7921	  0.118631	  0.089829	  0.022435	
3.82536	  0.115751	  0.091298	  0.022490	
3.85862	  0.113776	  0.092671	  0.022610	
3.89189	  0.112710	  0.094183	  0.022788	
3.92515	  0.112455	  0.095774	  0.022958	
3.95842	  0.112382	  0.096877	  0.023091	
3.99168	  0.110723	  0.097224	  0.023203	
4.02494	  0.107905	  0.096807	  0.023318	
4.05821	  0.105608	  0.095613	  0.023443	
4.09147	  0.104759	  0.093857	  0.023504	
4.12474	  0.105163	  0.091752	  0.023488	
4.158	  0.107024	  0.089543	  0.023474	
4.19126	  0.111022	  0.087599	  0.023558	
4.22453	  0.117330	  0.086202	  0.023827	
4.25779	  0.125444	  0.085355	  0.024267	
4.29106	  0.133950	  0.084878	  0.024736	
4.32432	  0.141406	  0.084360	  0.025014	
4.35758	  0.147151	  0.083946	  0.025062	
4.39085	  0.150521	  0.083959	  0.024910	
4.42411	  0.151937	  0.084226	  0.024548	
4.45738	  0.151905	  0.084391	  0.023985	
4.49064	  0.150220	  0.084213	  0.023261	
4.5239	  0.146415	  0.083729	  0.022464	
4.55717	  0.140878	  0.083331	  0.021679	
4.59043	  0.135130	  0.083160	  0.020985	
4.6237	  0.130282	  0.083201	  0.020505	
4.65696	  0.126653	  0.083484	  0.020447	
4.69022	  0.124464	  0.083823	  0.021025	
4.72349	  0.122911	  0.084153	  0.022481	
4.75675	  0.121735	  0.084736	  0.025171	
4.79002	  0.121559	  0.085596	  0.029526	
4.82328	  0.122638	  0.086644	  0.035992	
4.85654	  0.124615	  0.087890	  0.044916	
4.88981	  0.126871	  0.089476	  0.056385	
4.92307	  0.129977	  0.091472	  0.069746	
4.95634	  0.134861	  0.093856	  0.083410	
4.9896	  0.141915	  0.096525	  0.095433	
5.02286	  0.149844	  0.099548	  0.104776	
5.05613	  0.156153	  0.102771	  0.111751	
5.08939	  0.159270	  0.105727	  0.118658	
5.12266	  0.159572	  0.108053	  0.129380	
5.15592	  0.156518	  0.110320	  0.148929	
5.18918	  0.149273	  0.113442	  0.180760	
5.22245	  0.140061	  0.117762	  0.225710	
5.25571	  0.131486	  0.123368	  0.283210	
5.28898	  0.125434	  0.130204	  0.351768	
5.32224	  0.122965	  0.137960	  0.429672	
5.3555	  0.124224	  0.146725	  0.515368	
5.38877	  0.129062	  0.157599	  0.607197	
5.42203	  0.137425	  0.171696	  0.700098	
5.4553	  0.148831	  0.189193	  0.784917	
5.48856	  0.162003	  0.209332	  0.853122	
5.52182	  0.175688	  0.230576	  0.897941	
5.55509	  0.188767	  0.251458	  0.921654	
5.58835	  0.200215	  0.270744	  0.931574	
5.62162	  0.208249	  0.286264	  0.933460	
5.65488	  0.211856	  0.297003	  0.929553	
5.68814	  0.212956	  0.302712	  0.920508	
5.72141	  0.212714	  0.304127	  0.906966	
5.75467	  0.211510	  0.302328	  0.888916	
5.78794	  0.208614	  0.299129	  0.868070	
5.8212	  0.202754	  0.295332	  0.845045	
5.85446	  0.194652	  0.291283	  0.819662	
5.88773	  0.186277	  0.287170	  0.790955	
5.92099	  0.180703	  0.282859	  0.760333	
5.95426	  0.179327	  0.278537	  0.727269	
5.98752	  0.181795	  0.273751	  0.688487	
6.02078	  0.186222	  0.267841	  0.646504	
6.05405	  0.190094	  0.260202	  0.603178	
6.08731	  0.191133	  0.252031	  0.556257	
6.12058	  0.190248	  0.244480	  0.509193	
6.15384	  0.188965	  0.238633	  0.469059	
6.1871	  0.187476	  0.234373	  0.440101	
6.22037	  0.185903	  0.231991	  0.422251	
6.25363	  0.184743	  0.231590	  0.416414	
6.2869	  0.183541	  0.233937	  0.422470	
6.32016	  0.181452	  0.238875	  0.437201	
6.35342	  0.179953	  0.245591	  0.456089	
6.38669	  0.181085	  0.252428	  0.474847	
6.41995	  0.185418	  0.258572	  0.491597	
6.45322	  0.191399	  0.263331	  0.505446	
6.48648	  0.198019	  0.266697	  0.514155	
6.51974	  0.204797	  0.267916	  0.517065	
6.55301	  0.211119	  0.267294	  0.515230	
6.58627	  0.218089	  0.265263	  0.508001	
6.61954	  0.225989	  0.261522	  0.494999	
6.6528	  0.233874	  0.256098	  0.478135	
6.68606	  0.239634	  0.249474	  0.460752	
6.71933	  0.240699	  0.241682	  0.446058	
6.75259	  0.240031	  0.232789	  0.436662	
6.78586	  0.241783	  0.224343	  0.434632	
6.81912	  0.247303	  0.218428	  0.442305	
6.85238	  0.255456	  0.217212	  0.458688	
6.88565	  0.263281	  0.221712	  0.479920	
6.91891	  0.270409	  0.230716	  0.501054	
6.95218	  0.279360	  0.241857	  0.515286	
6.98544	  0.289635	  0.254008	  0.521144	
7.0187	  0.299608	  0.266292	  0.522390	
7.05197	  0.308034	  0.278492	  0.522582	
7.08523	  0.312876	  0.290166	  0.524030	
7.1185	  0.312375	  0.302599	  0.529437	
7.15176	  0.306940	  0.317142	  0.540408	
7.18502	  0.297887	  0.335910	  0.555082	
7.21829	  0.286803	  0.360291	  0.571175	
7.25155	  0.277230	  0.389239	  0.586149	
7.28482	  0.271281	  0.419820	  0.598830	
7.31808	  0.271048	  0.446335	  0.610758	
7.35134	  0.276074	  0.463127	  0.622241	
7.38461	  0.285198	  0.467679	  0.633330	
7.41787	  0.298493	  0.459394	  0.641509	
7.45114	  0.315131	  0.443155	  0.644434	
7.4844	  0.331315	  0.423089	  0.642373	
7.51766	  0.343546	  0.400857	  0.634994	
7.55093	  0.351563	  0.378666	  0.625349	
7.58419	  0.354603	  0.360047	  0.617889	
7.61746	  0.352638	  0.348175	  0.618000	
7.65072	  0.347729	  0.344212	  0.628663	
7.68398	  0.344516	  0.347599	  0.652322	
7.71725	  0.345360	  0.357101	  0.688543	
7.75051	  0.349968	  0.370974	  0.734855	
7.78378	  0.357403	  0.385323	  0.789115	
7.81704	  0.365059	  0.394088	  0.847021	
7.8503	  0.372470	  0.393374	  0.901939	
7.88357	  0.380845	  0.386860	  0.944343	
7.91683	  0.389670	  0.379838	  0.966435	
7.9501	  0.394927	  0.376754	  0.964640	
7.98336	  0.393620	  0.380023	  0.940836	
8.01662	  0.387725	  0.388377	  0.903062	
